<mxfile host="app.diagrams.net" agent="Mozilla/5.0 (Windows NT 10.0; Win64; x64) AppleWebKit/537.36 (KHTML, like Gecko) Chrome/137.0.0.0 Safari/537.36" version="27.0.9">
  <diagram name="Page-1" id="C7-MtyAV4K4ghMJdElfd">
    <mxGraphModel dx="469" dy="517" grid="1" gridSize="10" guides="1" tooltips="1" connect="1" arrows="1" fold="1" page="1" pageScale="1" pageWidth="850" pageHeight="1100" math="0" shadow="0">
      <root>
        <mxCell id="0" />
        <mxCell id="1" parent="0" />
        <mxCell id="J_RyUydGFugAgPV09VgC-67" value="" style="rounded=0;whiteSpace=wrap;html=1;" vertex="1" parent="1">
          <mxGeometry x="370" y="410" width="360" height="300" as="geometry" />
        </mxCell>
        <mxCell id="J_RyUydGFugAgPV09VgC-65" value="" style="group" vertex="1" connectable="0" parent="1">
          <mxGeometry x="120" y="390" width="115" height="250" as="geometry" />
        </mxCell>
        <mxCell id="J_RyUydGFugAgPV09VgC-62" value="Input" style="rounded=0;whiteSpace=wrap;html=1;" vertex="1" parent="J_RyUydGFugAgPV09VgC-65">
          <mxGeometry width="90" height="20" as="geometry" />
        </mxCell>
        <mxCell id="J_RyUydGFugAgPV09VgC-63" value="" style="rounded=0;whiteSpace=wrap;html=1;" vertex="1" parent="J_RyUydGFugAgPV09VgC-65">
          <mxGeometry y="20" width="90" height="90" as="geometry" />
        </mxCell>
        <mxCell id="J_RyUydGFugAgPV09VgC-93" value="Field" style="swimlane;fontStyle=0;childLayout=stackLayout;horizontal=1;startSize=30;horizontalStack=0;resizeParent=1;resizeParentMax=0;resizeLast=0;collapsible=1;marginBottom=0;whiteSpace=wrap;html=1;" vertex="1" parent="J_RyUydGFugAgPV09VgC-65">
          <mxGeometry x="-25" y="120" width="140" height="120" as="geometry">
            <mxRectangle x="-25" y="120" width="70" height="30" as="alternateBounds" />
          </mxGeometry>
        </mxCell>
        <mxCell id="J_RyUydGFugAgPV09VgC-94" value="Message id" style="text;strokeColor=none;fillColor=none;align=left;verticalAlign=middle;spacingLeft=4;spacingRight=4;overflow=hidden;points=[[0,0.5],[1,0.5]];portConstraint=eastwest;rotatable=0;whiteSpace=wrap;html=1;" vertex="1" parent="J_RyUydGFugAgPV09VgC-93">
          <mxGeometry y="30" width="140" height="30" as="geometry" />
        </mxCell>
        <mxCell id="J_RyUydGFugAgPV09VgC-95" value="Message" style="text;strokeColor=none;fillColor=none;align=left;verticalAlign=middle;spacingLeft=4;spacingRight=4;overflow=hidden;points=[[0,0.5],[1,0.5]];portConstraint=eastwest;rotatable=0;whiteSpace=wrap;html=1;" vertex="1" parent="J_RyUydGFugAgPV09VgC-93">
          <mxGeometry y="60" width="140" height="30" as="geometry" />
        </mxCell>
        <mxCell id="J_RyUydGFugAgPV09VgC-96" value="chat id" style="text;strokeColor=none;fillColor=none;align=left;verticalAlign=middle;spacingLeft=4;spacingRight=4;overflow=hidden;points=[[0,0.5],[1,0.5]];portConstraint=eastwest;rotatable=0;whiteSpace=wrap;html=1;" vertex="1" parent="J_RyUydGFugAgPV09VgC-93">
          <mxGeometry y="90" width="140" height="30" as="geometry" />
        </mxCell>
        <mxCell id="J_RyUydGFugAgPV09VgC-64" value="" style="shape=image;verticalLabelPosition=bottom;labelBackgroundColor=default;verticalAlign=top;aspect=fixed;imageAspect=0;image=https://upload.wikimedia.org/wikipedia/commons/thumb/8/83/Telegram_2019_Logo.svg/1200px-Telegram_2019_Logo.svg.png;" vertex="1" parent="J_RyUydGFugAgPV09VgC-65">
          <mxGeometry x="20" y="40" width="50" height="50" as="geometry" />
        </mxCell>
        <mxCell id="J_RyUydGFugAgPV09VgC-5" style="edgeStyle=orthogonalEdgeStyle;rounded=0;orthogonalLoop=1;jettySize=auto;html=1;exitX=1;exitY=0.5;exitDx=0;exitDy=0;entryX=0;entryY=0.5;entryDx=0;entryDy=0;" edge="1" parent="1" source="J_RyUydGFugAgPV09VgC-1" target="J_RyUydGFugAgPV09VgC-2">
          <mxGeometry relative="1" as="geometry" />
        </mxCell>
        <mxCell id="J_RyUydGFugAgPV09VgC-6" style="edgeStyle=orthogonalEdgeStyle;rounded=0;orthogonalLoop=1;jettySize=auto;html=1;exitX=1;exitY=0.5;exitDx=0;exitDy=0;entryX=0;entryY=0.5;entryDx=0;entryDy=0;" edge="1" parent="1" source="J_RyUydGFugAgPV09VgC-2" target="J_RyUydGFugAgPV09VgC-3">
          <mxGeometry relative="1" as="geometry" />
        </mxCell>
        <mxCell id="J_RyUydGFugAgPV09VgC-39" style="edgeStyle=orthogonalEdgeStyle;rounded=0;orthogonalLoop=1;jettySize=auto;html=1;entryX=1;entryY=0.5;entryDx=0;entryDy=0;" edge="1" parent="1" source="J_RyUydGFugAgPV09VgC-2" target="J_RyUydGFugAgPV09VgC-38">
          <mxGeometry relative="1" as="geometry">
            <Array as="points">
              <mxPoint x="660" y="110" />
              <mxPoint x="660" y="300" />
            </Array>
          </mxGeometry>
        </mxCell>
        <mxCell id="J_RyUydGFugAgPV09VgC-22" value="" style="edgeStyle=orthogonalEdgeStyle;rounded=0;orthogonalLoop=1;jettySize=auto;html=1;" edge="1" parent="1" source="J_RyUydGFugAgPV09VgC-3" target="J_RyUydGFugAgPV09VgC-20">
          <mxGeometry relative="1" as="geometry" />
        </mxCell>
        <mxCell id="J_RyUydGFugAgPV09VgC-46" style="edgeStyle=orthogonalEdgeStyle;rounded=0;orthogonalLoop=1;jettySize=auto;html=1;entryX=1;entryY=0.5;entryDx=0;entryDy=0;" edge="1" parent="1" source="J_RyUydGFugAgPV09VgC-3" target="J_RyUydGFugAgPV09VgC-45">
          <mxGeometry relative="1" as="geometry">
            <Array as="points">
              <mxPoint x="870" y="110" />
              <mxPoint x="870" y="300" />
            </Array>
          </mxGeometry>
        </mxCell>
        <mxCell id="J_RyUydGFugAgPV09VgC-50" value="" style="edgeStyle=orthogonalEdgeStyle;rounded=0;orthogonalLoop=1;jettySize=auto;html=1;" edge="1" parent="1" source="J_RyUydGFugAgPV09VgC-20" target="J_RyUydGFugAgPV09VgC-49">
          <mxGeometry relative="1" as="geometry" />
        </mxCell>
        <mxCell id="J_RyUydGFugAgPV09VgC-40" style="edgeStyle=orthogonalEdgeStyle;rounded=0;orthogonalLoop=1;jettySize=auto;html=1;" edge="1" parent="1" source="J_RyUydGFugAgPV09VgC-38">
          <mxGeometry relative="1" as="geometry">
            <mxPoint x="490" y="110" as="targetPoint" />
          </mxGeometry>
        </mxCell>
        <mxCell id="J_RyUydGFugAgPV09VgC-38" value="Cleareance" style="rounded=0;whiteSpace=wrap;html=1;" vertex="1" parent="1">
          <mxGeometry x="520" y="270" width="120" height="60" as="geometry" />
        </mxCell>
        <mxCell id="J_RyUydGFugAgPV09VgC-47" style="edgeStyle=orthogonalEdgeStyle;rounded=0;orthogonalLoop=1;jettySize=auto;html=1;exitX=0;exitY=0.5;exitDx=0;exitDy=0;" edge="1" parent="1" source="J_RyUydGFugAgPV09VgC-45">
          <mxGeometry relative="1" as="geometry">
            <mxPoint x="700" y="110" as="targetPoint" />
          </mxGeometry>
        </mxCell>
        <mxCell id="J_RyUydGFugAgPV09VgC-45" value="(Optional)&lt;br&gt;Comparisson" style="rounded=0;whiteSpace=wrap;html=1;" vertex="1" parent="1">
          <mxGeometry x="730" y="270" width="120" height="60" as="geometry" />
        </mxCell>
        <mxCell id="J_RyUydGFugAgPV09VgC-52" style="edgeStyle=orthogonalEdgeStyle;rounded=0;orthogonalLoop=1;jettySize=auto;html=1;" edge="1" parent="1" source="J_RyUydGFugAgPV09VgC-49" target="J_RyUydGFugAgPV09VgC-4">
          <mxGeometry relative="1" as="geometry" />
        </mxCell>
        <mxCell id="J_RyUydGFugAgPV09VgC-49" value="Respon Creator" style="rounded=0;whiteSpace=wrap;html=1;" vertex="1" parent="1">
          <mxGeometry x="1100" y="80" width="120" height="60" as="geometry" />
        </mxCell>
        <mxCell id="J_RyUydGFugAgPV09VgC-53" value="" style="group" vertex="1" connectable="0" parent="1">
          <mxGeometry x="1310" y="80" width="120" height="120" as="geometry" />
        </mxCell>
        <mxCell id="J_RyUydGFugAgPV09VgC-4" value="Output" style="rounded=0;whiteSpace=wrap;html=1;" vertex="1" parent="J_RyUydGFugAgPV09VgC-53">
          <mxGeometry width="120" height="60" as="geometry" />
        </mxCell>
        <mxCell id="J_RyUydGFugAgPV09VgC-16" value="Text" style="rounded=0;whiteSpace=wrap;html=1;" vertex="1" parent="J_RyUydGFugAgPV09VgC-53">
          <mxGeometry y="60" width="120" height="20" as="geometry" />
        </mxCell>
        <mxCell id="J_RyUydGFugAgPV09VgC-17" value="Audio" style="rounded=0;whiteSpace=wrap;html=1;" vertex="1" parent="J_RyUydGFugAgPV09VgC-53">
          <mxGeometry y="80" width="120" height="20" as="geometry" />
        </mxCell>
        <mxCell id="J_RyUydGFugAgPV09VgC-18" value="Document Report" style="rounded=0;whiteSpace=wrap;html=1;" vertex="1" parent="J_RyUydGFugAgPV09VgC-53">
          <mxGeometry y="100" width="120" height="20" as="geometry" />
        </mxCell>
        <mxCell id="J_RyUydGFugAgPV09VgC-54" value="" style="group" vertex="1" connectable="0" parent="1">
          <mxGeometry x="910" y="80" width="120" height="160" as="geometry" />
        </mxCell>
        <mxCell id="J_RyUydGFugAgPV09VgC-20" value="Agent" style="rounded=0;whiteSpace=wrap;html=1;" vertex="1" parent="J_RyUydGFugAgPV09VgC-54">
          <mxGeometry width="120" height="60" as="geometry" />
        </mxCell>
        <mxCell id="J_RyUydGFugAgPV09VgC-28" value="Calendar" style="rounded=0;whiteSpace=wrap;html=1;" vertex="1" parent="J_RyUydGFugAgPV09VgC-54">
          <mxGeometry y="60" width="120" height="20" as="geometry" />
        </mxCell>
        <mxCell id="J_RyUydGFugAgPV09VgC-29" value="To Dos" style="rounded=0;whiteSpace=wrap;html=1;" vertex="1" parent="J_RyUydGFugAgPV09VgC-54">
          <mxGeometry y="80" width="120" height="20" as="geometry" />
        </mxCell>
        <mxCell id="J_RyUydGFugAgPV09VgC-30" value="Sheets" style="rounded=0;whiteSpace=wrap;html=1;" vertex="1" parent="J_RyUydGFugAgPV09VgC-54">
          <mxGeometry y="100" width="120" height="20" as="geometry" />
        </mxCell>
        <mxCell id="J_RyUydGFugAgPV09VgC-31" value="Docs" style="rounded=0;whiteSpace=wrap;html=1;" vertex="1" parent="J_RyUydGFugAgPV09VgC-54">
          <mxGeometry y="120" width="120" height="20" as="geometry" />
        </mxCell>
        <mxCell id="J_RyUydGFugAgPV09VgC-32" value="Finance" style="rounded=0;whiteSpace=wrap;html=1;" vertex="1" parent="J_RyUydGFugAgPV09VgC-54">
          <mxGeometry y="140" width="120" height="20" as="geometry" />
        </mxCell>
        <mxCell id="J_RyUydGFugAgPV09VgC-55" value="" style="group" vertex="1" connectable="0" parent="1">
          <mxGeometry x="730" y="80" width="120" height="140" as="geometry" />
        </mxCell>
        <mxCell id="J_RyUydGFugAgPV09VgC-3" value="Process" style="rounded=0;whiteSpace=wrap;html=1;" vertex="1" parent="J_RyUydGFugAgPV09VgC-55">
          <mxGeometry width="120" height="60" as="geometry" />
        </mxCell>
        <mxCell id="J_RyUydGFugAgPV09VgC-41" value="Planing" style="rounded=0;whiteSpace=wrap;html=1;" vertex="1" parent="J_RyUydGFugAgPV09VgC-55">
          <mxGeometry y="60" width="120" height="20" as="geometry" />
        </mxCell>
        <mxCell id="J_RyUydGFugAgPV09VgC-42" value="Decision Maker" style="rounded=0;whiteSpace=wrap;html=1;" vertex="1" parent="J_RyUydGFugAgPV09VgC-55">
          <mxGeometry y="80" width="120" height="20" as="geometry" />
        </mxCell>
        <mxCell id="J_RyUydGFugAgPV09VgC-43" value="Identify Tools" style="rounded=0;whiteSpace=wrap;html=1;" vertex="1" parent="J_RyUydGFugAgPV09VgC-55">
          <mxGeometry y="100" width="120" height="20" as="geometry" />
        </mxCell>
        <mxCell id="J_RyUydGFugAgPV09VgC-44" value="Execution Flow" style="rounded=0;whiteSpace=wrap;html=1;" vertex="1" parent="J_RyUydGFugAgPV09VgC-55">
          <mxGeometry y="120" width="120" height="20" as="geometry" />
        </mxCell>
        <mxCell id="J_RyUydGFugAgPV09VgC-56" value="" style="group" vertex="1" connectable="0" parent="1">
          <mxGeometry x="520" y="80" width="120" height="150" as="geometry" />
        </mxCell>
        <mxCell id="J_RyUydGFugAgPV09VgC-2" value="Pre Processing" style="rounded=0;whiteSpace=wrap;html=1;" vertex="1" parent="J_RyUydGFugAgPV09VgC-56">
          <mxGeometry width="120" height="60" as="geometry" />
        </mxCell>
        <mxCell id="J_RyUydGFugAgPV09VgC-19" value="Transcription" style="rounded=0;whiteSpace=wrap;html=1;" vertex="1" parent="J_RyUydGFugAgPV09VgC-56">
          <mxGeometry y="60" width="120" height="20" as="geometry" />
        </mxCell>
        <mxCell id="J_RyUydGFugAgPV09VgC-33" value="Cleaning &amp;amp; Normalitation" style="rounded=0;whiteSpace=wrap;html=1;" vertex="1" parent="J_RyUydGFugAgPV09VgC-56">
          <mxGeometry y="80" width="120" height="30" as="geometry" />
        </mxCell>
        <mxCell id="J_RyUydGFugAgPV09VgC-34" value="Intent Recognition" style="rounded=0;whiteSpace=wrap;html=1;" vertex="1" parent="J_RyUydGFugAgPV09VgC-56">
          <mxGeometry y="110" width="120" height="20" as="geometry" />
        </mxCell>
        <mxCell id="J_RyUydGFugAgPV09VgC-37" value="Entity Extraction" style="rounded=0;whiteSpace=wrap;html=1;" vertex="1" parent="J_RyUydGFugAgPV09VgC-56">
          <mxGeometry y="130" width="120" height="20" as="geometry" />
        </mxCell>
        <mxCell id="J_RyUydGFugAgPV09VgC-59" style="edgeStyle=orthogonalEdgeStyle;rounded=0;orthogonalLoop=1;jettySize=auto;html=1;" edge="1" parent="1" source="J_RyUydGFugAgPV09VgC-58" target="J_RyUydGFugAgPV09VgC-1">
          <mxGeometry relative="1" as="geometry" />
        </mxCell>
        <mxCell id="J_RyUydGFugAgPV09VgC-58" value="Start" style="rounded=0;whiteSpace=wrap;html=1;" vertex="1" parent="1">
          <mxGeometry x="110" y="80" width="120" height="60" as="geometry" />
        </mxCell>
        <mxCell id="J_RyUydGFugAgPV09VgC-66" value="Pre Processing" style="rounded=0;whiteSpace=wrap;html=1;" vertex="1" parent="1">
          <mxGeometry x="370" y="390" width="360" height="20" as="geometry" />
        </mxCell>
        <mxCell id="J_RyUydGFugAgPV09VgC-69" value="Transcription" style="rounded=0;whiteSpace=wrap;html=1;" vertex="1" parent="1">
          <mxGeometry x="380" y="425" width="140" height="55" as="geometry" />
        </mxCell>
        <mxCell id="J_RyUydGFugAgPV09VgC-89" style="edgeStyle=orthogonalEdgeStyle;rounded=0;orthogonalLoop=1;jettySize=auto;html=1;entryX=0;entryY=0.5;entryDx=0;entryDy=0;" edge="1" parent="1" source="J_RyUydGFugAgPV09VgC-70" target="J_RyUydGFugAgPV09VgC-88">
          <mxGeometry relative="1" as="geometry">
            <Array as="points">
              <mxPoint x="750" y="518" />
              <mxPoint x="820" y="518" />
            </Array>
          </mxGeometry>
        </mxCell>
        <mxCell id="J_RyUydGFugAgPV09VgC-70" value="Cleaning &amp;amp; Normalitation" style="rounded=0;whiteSpace=wrap;html=1;" vertex="1" parent="1">
          <mxGeometry x="380" y="490" width="140" height="55" as="geometry" />
        </mxCell>
        <mxCell id="J_RyUydGFugAgPV09VgC-71" value="Intent Recognition" style="rounded=0;whiteSpace=wrap;html=1;" vertex="1" parent="1">
          <mxGeometry x="380" y="560" width="140" height="55" as="geometry" />
        </mxCell>
        <mxCell id="J_RyUydGFugAgPV09VgC-72" value="Entity Extraction" style="rounded=0;whiteSpace=wrap;html=1;" vertex="1" parent="1">
          <mxGeometry x="380" y="630" width="140" height="55" as="geometry" />
        </mxCell>
        <mxCell id="J_RyUydGFugAgPV09VgC-73" value="" style="shape=image;verticalLabelPosition=bottom;labelBackgroundColor=default;verticalAlign=top;aspect=fixed;imageAspect=0;image=https://substackcdn.com/image/fetch/f_auto,q_auto:good,fl_progressive:steep/https%3A%2F%2Fsubstack-post-media.s3.amazonaws.com%2Fpublic%2Fimages%2F26ff337f-76a0-4bdc-92b4-a4d7f4cb7cde_744x388.png;" vertex="1" parent="1">
          <mxGeometry x="536" y="419.1" width="74" height="38.59" as="geometry" />
        </mxCell>
        <mxCell id="J_RyUydGFugAgPV09VgC-79" value="" style="shape=image;verticalLabelPosition=bottom;labelBackgroundColor=default;verticalAlign=top;aspect=fixed;imageAspect=0;image=https://user-images.githubusercontent.com/5436686/32834398-bc6858fe-ca02-11e7-8d40-bf18fd51a7b4.png;" vertex="1" parent="1">
          <mxGeometry x="630" y="419.1" width="61" height="60.9" as="geometry" />
        </mxCell>
        <mxCell id="J_RyUydGFugAgPV09VgC-80" value="" style="group" vertex="1" connectable="0" parent="1">
          <mxGeometry x="310" y="80" width="120" height="140" as="geometry" />
        </mxCell>
        <mxCell id="J_RyUydGFugAgPV09VgC-1" value="Input" style="rounded=0;whiteSpace=wrap;html=1;" vertex="1" parent="J_RyUydGFugAgPV09VgC-80">
          <mxGeometry width="120" height="60" as="geometry" />
        </mxCell>
        <mxCell id="J_RyUydGFugAgPV09VgC-11" value="Text" style="rounded=0;whiteSpace=wrap;html=1;" vertex="1" parent="J_RyUydGFugAgPV09VgC-80">
          <mxGeometry y="60" width="120" height="20" as="geometry" />
        </mxCell>
        <mxCell id="J_RyUydGFugAgPV09VgC-12" value="Audio" style="rounded=0;whiteSpace=wrap;html=1;" vertex="1" parent="J_RyUydGFugAgPV09VgC-80">
          <mxGeometry y="80" width="120" height="20" as="geometry" />
        </mxCell>
        <mxCell id="J_RyUydGFugAgPV09VgC-13" value="Document" style="rounded=0;whiteSpace=wrap;html=1;" vertex="1" parent="J_RyUydGFugAgPV09VgC-80">
          <mxGeometry y="100" width="120" height="20" as="geometry" />
        </mxCell>
        <mxCell id="J_RyUydGFugAgPV09VgC-14" value="Image" style="rounded=0;whiteSpace=wrap;html=1;" vertex="1" parent="J_RyUydGFugAgPV09VgC-80">
          <mxGeometry y="120" width="120" height="20" as="geometry" />
        </mxCell>
        <mxCell id="J_RyUydGFugAgPV09VgC-86" value="" style="shape=image;verticalLabelPosition=bottom;labelBackgroundColor=default;verticalAlign=top;aspect=fixed;imageAspect=0;image=data:image/png,iVBORw0KGgoAAAANSUhEUgAAAQgAAABWCAYAAAAzBQjMAAAAAXNSR0IArs4c6QAAAARnQU1BAACxjwv8YQUAAAAJcEhZcwAADsMAAA7DAcdvqGQAADC7SURBVHhe7Z15eFRVmv+/99aaVBJC9iKEhCwkssimQGgRBBQBRVp/tkAjuGCPYqsz7fi0SzuPTrfjdLfoaHcPNijtr1tpEUUBJQiICQgECFvICiEhG0mlkkoqtdddzu8P771dt24qqaw4v7mf58mT5NapqnvP8p73vO973kMRQghUVFRUeoAOvqCioqIiogoIFRWVkKgCQkVFJSSqgFBRUQmJKiBUVFRCogoIFRWVkKgCQkVFJSSqgFBRUQmJKiBUVFRCogoIFRWVkKgCQkVFJSSqgFBRUQmJKiBUVFRCogoIFRWVkKgCQkVFJSSqgFBRUQkJNdQJY3w+Hzo7O9He3o7m5mbYbDb4fD5wHAcA0Gq10Ov1iI2NxZgxY5CYmIi4uDgYjcbgj1JRUbnODImA8Hq9uHz5Mk6dOoXq6mp0dXXB7/fD4/GAZVmwLAue5wFBQNA0Da1WC4PBAKPRiNjYWEycOBEzZ85EXl4edDpd8FeoqKhcBwYlILxeLwoLC7F//340NTXB7/fD6/VCp9NhzJgxyMjIQGJiIkwmE/R6PQDA7XbD7/fDarWitrYWbW1t8Pv90Ov10Gg0MJvNuPvuu7FgwQJEREQEf6WKisoIMiAB4fV6UVZWhvfffx/19fXQ6XQwmUyYNWsWbr75ZkycOBERERG9LhsIIfD7/XA4HLhy5Qq+++47lJSUwOv1gmEYjBs3DuvWrcOMGTOg0+lAUVTwRww5DMPAbrfD4/EgMTERBoNhRL73esLzPFpbW3Hp0iXEx8dj7NixGDVqFGh65M1Tfr8fLpcLnZ2dSEpKQmRk5HW5j2AIISCEyPqC+Hfg8An+mxACnuelvyHUt/g3TdOgKAo0TUOj0Uh/jxR+vx8tLS24cuUKcnNzMWbMGEV/75eAYBgGra2t2LVrFw4cOIDo6GiYzWbMnTsX+fn5MJvN0Gg0wW8LC47jYLVaceTIERw9ehQWiwU8z2PJkiVYunTpoD47HHw+H3bu3IkDBw6AEIK5c+fi3nvvRXJycnDRASN2juF8jv7A8zzKysrw5z//GXV1dTAajcjLy8O6deswYcKEEe2sdrsdX375JYqLi9Ha2ork5GQ89NBDmDFjxojeRyCEELhcLrS2tsJms8FoNEKv14OiKOh0OhBCwHEceJ6Hz+eDx+ORhIHP54PdbofD4ZBe8/v9cDqdcDqdAIDo6GjExMQgJiYGZrMZcXFxSE1NRVRUFKKioqDVaoNvaUgghKCjowOHDh3Cl19+ia6uLiQmJuLVV1/FuHHjZGXDFhButxslJSXYvXs3qqurkZ2djblz52LevHlISUlRSJ7BYLPZcOjQIRQWFqK1tRWTJk3C/fffj4kTJw5bpRUVFeHXv/41YmNjAQA6nQ4//elPsXTp0iEZ0AzD4OzZs/D7/Zg4cSLi4+ODi4w45eXleOutt9DZ2Sk9o8fjwU9/+lOsXLmyVw1wKOF5HgUFBfjwww/h8/mg1WrBsiySk5Px8ssvY8yYMcFvGRHsdjsOHDiAw4cPo729HUajUdJmxX4oCghxeS0KCFF4IEDbACBpChCeW5w0KIqCwWDAmDFjkJ6ejokTJyI3NxdmsxkGg0F6/1DgdDqxc+dOFBQUSN8NAAsWLMDGjRtlZTWvvPLKK7IrPeB0OnH48GHs2LEDra2tWLhwIVavXo158+YhJiZmSIUDAERERGDChAnIyMiA2+3GhQsXUFtbi4SEhB7VoMFCCMHmzZvh8Xgktc/n8yEhIQGTJk2S7CcDhRCCwsJCbNu2DWfPnoXNZkNKSgpGjRoVXHTEsFgs2Lp1KxoaGmRCl+d5TJ48eUSNxS6XC4WFhaiurpbqmqZpeL1eZGdnIz09Pfgtw47f78eJEyewY8cO2O120DQNjuPg9XoljcDj8Uj/8zwvLRHEJYNWq1X8iK/3VAYAurq6cPXqVZSVlaGmpgYOhwOjR49GVFTUkPX7pqYmFBQUoKOjQ5oYiLDkv+2222T9oU/dze124+DBg/j444/hdrvxwAMPYP369cjNzR1W1U+n02HKlClYv3497rjjDjQ3N2Pr1q2oqKgILjpouru70dzcLHseiqKGrEGqq6vxwQcfoLu7Gy6XC0VFRdi3bx+6urqCi44IDMNg3759qKmpUQgBjUYDk8k0JFpTuHi9XkntDoSmaURFRQVfHhFcLhfOnTsHh8Mhq4vAAR74EwjHceA4TvLg+f1++Hw+xY/f7wfHcZJNAkL963Q6sCyLS5cu4fPPP8cf//hHnDx5UvYdg6G7uxtut1t236KA8Pl8srK9jnCWZVFcXIwdO3ZAo9HgwQcfxF133SWp4cMNRVEwm81YtWoV5s+fD5vNhjfffBMNDQ3BRQeFxWKB3++XXTMajUhJSRm0J8XlcuGjjz6Cy+WS1EtCCM6cOYPGxsbg4iPCxYsXUVxcLOuYIjRNj5hRWMTpdKK7u7vH5eNI9bVgtFotoqKiFAM4GIZhJG2CYRiYTCbEx8cjNTUVM2bMwI9+9CPcdtttWLp0KZYvX45ly5Zh+fLlWLJkCfLz85GWlgatVisZ50XEZQzDMLh06RL+8Ic/oKCgQAoXGCg8z8NmsykEBEVRku0jkF5tENXV1fi3f/s30DSNBx54AMuXL1fMOCOFx+PB66+/jtLSUmRnZ+M3v/nNkK2RDx48iK1bt0r/E0IQHx+PRx55BLNmzZKV7S979uzB3/72N9mA43ke8fHxeOqppzB58mRZ+eGmu7sbmzdvxunTpxUzHwTVetGiRVi3bt2ILYGqqqqwZcsWNDQ0yO4pMjISb775JuLi4mTlRwJCCNra2rBnzx4UFRXB7XYrBBhN05g1axby8/MRFRWFiIgIxMfHSwKWFparYtuLk4P4W7RTdHd34+rVqygqKsLJkyfB87zC7iAO09WrV+Pee++VvdYfWJbFvn378NFHHykE3x133IENGzbIril7iADLstiyZQtYlsW8efOwbNmy6yYcINgl/vmf/xk6nQ61tbXYv3//oKWpSEtLi6xj8jyPmJiYQXswmpqacODAgeDLYFkWkydPRlpaWvBLwwohBCdPnkRlZWVIDUGr1eLixYvo7u4OfmnYYBgGPp9PcU+JiYmKGW2koCgKycnJeOyxx/Df//3fWLBggex1QghiYmIwZ84c5OfnY8qUKcjOzpbsBSaTSXL1GwwGGAwG6PV62W+j0QiTyQSz2Yz8/Hw8//zzePfdd7FgwQKF5iLWzc6dOwfV91mWhcPhAMuysuuEENxwww2yawglIFiWxc6dO1FeXo6srCz8+Mc/HrShbiiIi4vDU089BQAoKCjAlStXgov0G0II6uvrZRUuNv5g1FuHw4Hdu3ejra1NoT2MGTMGc+fOHbEZWqSlpQUnTpxAd3e3NIsZDAbEx8dLz0/TNNrb29HW1qaYYYYLMfYhsJ4YhkF6erpi1r4exMTEYNGiRbJrPM8jMjISo0ePll0fLMnJyfj5z3+Of/mXf0FqaqqkaUAQEn6/H3v37kV5efmA2sfj8aCtrU0hIAAgOzs7+FLPAuLixYvYvn07UlJSsGrVKpjN5uAi141bb70VCxcuRFtbGw4dOgSv1xtcpF94PB44nU5ZZWu1WqSkpAx49vJ6vThy5AhOnz6tEDwRERFYsmQJpk2bJnvPcCO6WcvKyqRB5/P5MHv2bKxdu1Z2nxzH4dy5c7I18XBBCIHb7Ybb7ZZd9/v9SE9P73EZdD0IHlBiW8bExMiuDwU6nQ633HILHn/8ceTl5cle02g0sFgs2L9/Pzo6OmSvhYMojAMNr4QQJCcn96gxK2rf5XLh008/BcuyWLRoEaZPnx5c5Lpz9913Izo6GhUVFaitrQ1+uV84nU64XC5JQBBCYDQaBxyYxTAMzp8/j6+//hpOp1NhCLr99tuxaNGiAX32YLBYLCgqKpJ882IHX7ZsGXJycpCamioJCb1ej+LiYng8nqBPGXo4juvxeziOG/ElWG+4XC7FEigqKgrR0dGya0NJXl4e1q9fj4yMDIW2UF5ejrKyMqk9w4EQAofDgc7OTlm/9Pv9uOmmm2RlRRQC4uzZs6ipqUFKSgruvvtuRaX8EEhKSsK8efPQ3NyMCxcuKFwz/aGjo0M2UxJCoNPpkJKSIisXDhzH4eLFi/jkk08Udg2fz4cFCxZgxYoVA9ZMBoro06+pqZEEk9frxfz585GRkQGTyYRJkyZJsyRFUbBYLKiqqgr6pKGHZVl0d3cr1tQ0TSMxMVF27XrS3Nws+1+r1WL06NGIjIyUXR9qsrOz8cADD8jGIU3T6O7uxvnz52G322Xle4MQgq6urh6Xc6E0WpmA6O7uRlFREVwuF+6///5BrcGHE6PRiDlz5sBkMqGiogJtbW3BRcLGbreDYRhZhen1+gF1zkuXLuG9995DY2Oj7PM8Hg+WLVuGNWvWXJc6tdvt2LNnjyQceJ5HYmIilixZApqmYTQaMWnSJJnl3GAw4LPPPgv4lOFB1CCCZ0iTyXRdvBehaGxslN2jmLJgJDTBqVOn4tZbb5UtpzUaDaqrq/tlK2JZFu3t7XC73Yr+PmHCBFlZEZmAqKysRG1tLdLS0hRW2x8SFEUhNTUVU6dOxaVLlxSN1x9sNptCTTOZTP02PtXV1eE//uM/YLFYFMJh9erVWL9+/XURDgDw1VdfoaurS9JoRO0hNTUVEDrb2LFjkZaWJjNWlpaW4tq1a7LPGmrE6MRgRo0a9YMwUELQ/iwWi2wZqtFohiWqtyd0Oh3uuecexXLVarWiqalJ0X9DwTAM2tvbZeU5jkNeXl5ITUj6RoZhcPHiRbS1tWHx4sUDDhAiPA+OZcD4fei2d8Bua4XH7QTPcSDk+9fEH55jQQboromJiUFeXh48Hg/q6up6XMf2BRF83X6/X2poiqJgMplgMpmCi/cIz/OoqKjAc889B5/Pp5hRVq9ejfvuu2/IYjb6i9Vqxaeffiq1J8/zGDt2LObOnSu7p/j4eGRnZ8uMcREREfjmm2+k/4cDv9+vMJoxDIPJkydfV7d6IF1dXTI7FYRZt7+TyGBIS0tDZmambHCzLIvm5uawjcl+v1+h3fr9/l5jfSQB0dnZiebmZkRGRuLGG2/sl2QkhMDrdqC14TLKivfhy/dexY7fPYa/vrIKH772ED7+7WMo3vcemmsuYN/7r2Lvln9DwQev4ejnm3Hx2BewNlbD73UB/dACxFkvMTERdXV1Cit4OIizV2ClUxSFMWPGhGU99/l8OHXqFF5//XVZeUIIIiMjsWbNGqxcuVIR9DJSMAyD9957T+aiJoTglltuUWyAMplMyMzMlAlGnU6HAwcODKhuw4UXNjoFC4gf0vKis7NTFmkr2qlGesPdpEmTZH2VpmkpD0s4+IX0CsGTWG5uruz/QKReXV9fj8bGRuTm5iIhIUFeqhc4lkFb42Uc3/s+dv/xF/j6/RdRc+YrWBsrwPmcYD122C21OLbrHdScK0RbQxmunP0Kl07uRsn+93Dgg1fwxZ+ew+kDf0NHSy0ICU+joCgKcXFxSEpKQl1d3YACe3w+H7q6umSzJkVRYTW80+lEUVERtm7dqlCRExMTcf/99+OOO+4IqbqNBOXl5Th+/LikqnMch/Hjx2PWrFkKDUmj0SA9PR1ms1nWCR0OBy5cuCArO5QwDKPwEHAch4yMDFm564ndbgcvbMYSMRgMw+rB6ImcnBzFZNaTgbcnRA9G4AYtCNGqvXmLaAiNdPXqVVitVtx4441hd2qOY9F0+TwKP9mEC9/+He5uC3QGE7Q6I2jNP9RDiqahNZjQ1liD8VMXA6Cg0Rmh1UdCZzDB1dWK0wV/wbcf/x5Nl8LvjGJeS5vNho6OjrAqKhCv1wu3262wX/QV9yHubv373/+Orq4uqeNwHIf09HSsWbMGCxcuDLsehwMxUCtQe9HpdJg+fbpiz79ISkqKFJwjotPpcPz48X7Xbbj4fD50dHQoBMRIqu99YbVaZbM0JexbCBayw43RaJS1DU3TsNvtihiNULjdbtlkRgiB2Wzu1ZxAQ/DxtrS0wGAwID09Pby1HyGwNlbj6K7/QkvNedA0DZoObdGlaQ2uXS5BfHKaQkugaA0oikZD1Wl889FrqK84I3s9FBEREZK2Y7FYwjbWiDgcDng8HlnnJIT06ob0+Xw4duwYPv/8c3R3d0vS2O/3IzMzE+vWrUN+fn6vlT4SnD17FtXV1dLSh+M4pKamYs6cOSHtITExMcjOzlY8f3V1Ndrb22XXhgqv1wuHw6GYnfsS0iMFL2xuCrRTaTQaJCQkXHcjKkVRiiVyb7hcLpmA4DgOZrO5V3MCDcGSX19fj9TUVCQlJYW1/mb8Phz66Hew1leBCqM8AHhdFmgNOlAhBIlGq0enpR5ff/AcbK1979jUarVITEyE0WgckIBwu90KFyclGCl7guM4HDt2DB9//LFMOLhcLkyZMgVPP/00Jk+erFjjjTRWqxWHDh2SGa8MBgNmzpzZa24FiqKQlZWFmJgYWV16PJ5h2WZPCAHDMIoZUKfTjXgYeih4nu9xGdqbWj5csCwr66s8z4edeYoIEauBfYITgtH6FBAOhwOtra1ISUkJe11VenQvLFdLQWvD0DYEaNoAv6sbWm3PMxgA0Bot3A4nvvnotT7VWoqiEBsbi8jISDQ2Nio6Wl8wDKOwAGs0mpDqbUFBAf70pz/B6XTKhMPChQvxr//6r31W9khAhA1ZV69ela7xPI9Ro0bhzjvv7LMzZWRkICEhQXoOSkiec/bs2X4L4L7geR4tLS2KTms2m8OapEYCX0AqORFe2Mw30nR2dsr+J4QgOjq6zzaFUNZmsykETGxsbK99luZ5Hp2dnXA4HEhISAipfgbitLfh4P99AVqdEUDoD1dA0SCEB9WLgAAAiqJhaaxC2XdfBr+kQNw1Z7PZ+hQogYgVFrwvHoILKxCe57F9+3a888470ASkDPN4PLjnnnvw+OOP/2BmvObmZhw/fhxOp1O6T5qmsWjRorA8A5GRkZgyZYrMdsFxHBoaGtDU1CQrO1gIIfAKadoCr40dO/a6a2EiYuRhcN/qTRMbLioqKmTCgBCCUaNG9TrARXiex6VLl2TvFz0xvb2fFkNdIYQw9yUgCCH4dscfYIgY+IDQ6Hr/DoAC43ag7LsP4O62Bb8ow2QywWAwwOFwyDpaXxBC4PF4wHGcrIL0er1kP+CERLqbNm3Cjh07pEAnQghomsaDDz6ItWvXhlySjDRerxfHjh2TZYrieR7R0dG46667gouHZObMmdDr9VJ90jSNrq4uVFdX96uO+4LneTgcDkWnv14BZT3hF7I+BQcpjXSbsyyLy5cvy+6D4zhkZmb2OWYR0N8D0el0iIuL611AMAwDm80m7VHvrTAAdHe1o6bkc9Da4d3+TWl0cDlYNNWUBr8kIzIyEgaDAS6XS7Fc6AtWSAkWiNlshlbI8FNaWoq3334bp06dkmZUXghTfuihh3DPPfdcV09FIDzPo7a2FsXFxQr7wUMPPRRWJxJJS0uTuRkpwZ1WWVkJl8slKzsYOI5T7Fnx+/0hvSzXg57sVHq9Puyl+FAhniEjalZE2GyXlpYWllPB6/XCYrFIwljUPvp6DpoIhiKdToeIiIg+BUTt+ULQmuGXnhRFw9Pdjrb68uCXZOh0Omg0GrBC7r9w4TgODodD9h5eyPTU3d2NgwcPYtu2bbLkKizLYvz48Vi7di0WL1583QKgesIl5LpsaGiQOhHLssjNzcXs2bODi/eKRqPB/PnzZYKGoig0NDQMaZo8nudlxl7x2g9F6CKEp6un1GzDzcGDB2X/8zyPtLS0sO01Ho8HDodD+p/necTFxfVpv6A5YbNMREQEIiMjexUQPM/j8pl9QC9lhhLG74a7uwUc2/fA54T04+HCMAwcDodC6+jq6sL27dvx6aefoqWlReq8HMchJycHGzZswJw5c/qs2JGEEIKKigocO3ZM1lm0Wi0eeughhU0lHKZPny7TOmiaRnNzM2pqahR1NlAY4ZyVwHsWXYg/BAgh6O7uhtfrlY2Lvgx7Q01jYyOKi4tl7UhRFPLy8sIK6oOwazkwIpbneSQlJfWpfdDiOjAiIkIxI3Ich+bmZtTW1sLlcsHZZYXdenXA+ycAwO/re7BLEA5+rwuMX7mZZ7CIy4vAhqZpGnV1dVIOwuB1p9vtht1uH9HOEQ4OhwO7du2SRST6/X7Mnj1bkXCkJ1iWRVdXF6qqqvDtt9/iww8/xAcffKDQIHw+H0pLSxXW9IHi9/ul7FYiNE2HZUwdCUQNJ3DtzrLsiC6BCCHYvXu3In5h9OjRmDx5cti2kNbWVtkEyvM8EhIS+hYQLMvC6XRCG5CbH8Ka5cMPP8Tzzz+Pt99+G1VVVeiytoBjqUFpEBzbv7h+wvMgfN+GsXDUrEC8Qqr14MHOMIzCcAnh8y0WC95991188cUXCoPP9WTfvn2orq6WNXZ0dHSPeUQ5joPdbkdjYyO+/fZbbNu2Da+++ipefPFF/OY3v8GWLVuwd+9eHD9+XGGQ1Gq1uHTpEpqbm/ulrYVCVN8DiYqKGpDGMxyIy+/ggRXurD0UHD9+HKdPn1YI0alTpyIvLy/sfh/sAdEK+Sz60oRpEnACkIjb7cbLL7+MHTt2wOPxwOfzgeM4dFmbQKAB1R/XpgICjhl6jUCr1fbLNeYXTkIKFgQQBpHX6+1xEDgcDmzfvh3vvfcebLbePSwjwZUrV/Dxxx/LBhXHcVi4cCFSUlLQ2NiI0tJS7Nq1C++//z5ee+01PPPMM3jyySfxxhtvYM+ePaioqEB7e7tksScBeRADoSgKnZ2dOHPmjGL/yUCwWq2y5Qov7DT9oQgIj8ejSAfAMMyIeVnEYy4DzwwRZ/5bbrmlX6714MlQq9Vi1KhRfY4ZhfjhOA4ffPABqqqqJEOMTqeDTqeDvb0RHMcOSoOgKBqE7UfnoihQFNDW1oba2lpp44wII0TiabVaxRKpN1iWVWSiIkJK8mnTpuG+++5DRkYGaJqWDRaxkr/55hu89dZbqKysVHhCRgqXy4WtW7cqGlmr1aK6uhovvPACNm7ciJdeegl/+ctfsHv3bpw/fx4ul0vKqKwXTlUPRBQQfMBBsyJ6vV46HWywWK1WhYtzOE5qGyh+4TDhwP7m8/kUO2GHGiKkIfjrX/+K+vp6WfvohHyV/TkuQXSRBmqTOp0OkWEcjkxTFCW7AdFVFryXgKIouLqs4AZhD6AoGlpdJNh+aBA6vQG0Vo/t27fj+eefxzvvvIPy8nJJqjudTvh8Ppj6eRqUmCg1sIJ8Ph/mz5+PX/7yl1i/fj1eeOEFrF69GmlpaaBpWuooFEVBr9ejrKwMb7/9Nk6cODGsW6J7gmVZKbN38HMTQnD58mV0dHQgMjISERERiBBSsGu1WtkAFDVIsT41Gg2MRiNiYmIQHx+vCLumhS3Gp0+fVgiP/hJ8mhnDMEhKSupT7R0pRDtV4D3yPD+sGg4RAvi++OILlJSUyNqK4zhMmTIFS5cu7VcduVwu2VKOFyJBo8I4zo+maRoRERFSZZw9e1ahPtLC8WKszwmeH3i4rc4YDYe9E0CYHYvSQKuPhM/Pwmq1ghCCkpISbN68GXV1dYAgIEQvTF8PK0KEuPTgpLIMw8hS/MfHx2PFihV44oknsHDhQkRHR8u0BZ1OJ51x+cknn8BqtUqvDTeVlZU4fPhwyGfWBER8iohaAcuyYBgGWq0WsbGxyMrKwowZM3Drrbfi7rvvxgMPPIANGzbgySefxMMPP4zY2FjZLKrT6fDtt98OaIu9CC+EWQd2dI7jEBMToxB41wufzwd3UHo2cXANF21tbdi5cycOHz4MPmCLOcMwGD9+PNasWdNvI67NZpMtU4iQzyKceqa1Wi2io6PhdrtRX1/fY6JSUUDwLIv+JHUJJjpuLFi/DxTVu1ojotEYoDNESxKQCOc4tLW1oaCgQLIj+P1+xMXF9akuiZAeNgnxPI+8vDzFLkKKopCTk4O1a9fi4YcfRm5urkJIeDwe7N69G1u3bkV5ee9xG0NBR0cHCgoKFDssRQEQjLicooRkOPn5+VixYgXWrVuHRx55BI8//jj+6Z/+CQ8//DBWrVqFu+66C/n5+bjxxhsxZ84cLFu2TPbMGo0GjY2NKCoqkn1Pf2AYRuZGFjGZTGG343Dj8/ng9Xpl92M0GkPu1RksdXV12LZtGw4fPgwuIHpTDB7bsGHDgPJkOBwOhZ1Ro9GEVc+0RqNBdHQ07HY7vvjiC1y6dElWgIjHg/McWNYBQgamQRCeQ2xSGmytdaA14aloWqMJkdGJsNlsMq2GoihUVlaiublZ0iDECMhwIELyjMCoQJ/Ph3nz5snKBRIZGYl58+Zhw4YNmDdvHliWlVRsiqKg0+lQUlKC9957D4WFhf0K2uoPHMfhyJEjOH/+vELFj46OhtlshtfrhcfjkdyeU6dOxdq1a/HMM8/gqaeekgSBeD5kZmYmEhISehycWq0WN998M8aNGycTPhqNBl988cWAzmaAILSCXcY0TSM+Pl4hNK4XjHDiVyAa4XDdoYTneRQVFeGNN97AmTPfpzoQ68Xv9yMrKwtPPPFEWC7rnqivrw++pNAuQ0FTwhmCnBD2GmotTcCB8Ez4y4MgWL8H0XEpcNhaw9seTgj0BhNMcWbU19fLfPwQpGJtba0UDZmYmKjo3KHgOA5Op1NmQWcYptfUWxAqNTMzEw8//DDuv/9+qd5EtFotmpqasG3bNmzfvr1fKcnDpby8HIcOHZLlJxBVxsceewzPPfccHnvsMaxZswbPP/88Nm3ahGeeeQYrVqxAfn4+cnJykJCQ0K8lWVJSEubPny8TSDRNw2azYf/+/bKy4WK1WhX1Qwl7HMJtx+GEECItuwPR6/Vh11s4WCwWvPPOO9iyZYsiaMzr9SI3NxdPPPFEn32zN7p7OBiZCvP0eskGQdM0Vq1ahalTpwaXGRIIIYgwRYLxhmf9JiDQGQyIiolDa2urLNyVoijwPI+mpiZcu3YNfr8fSUlJYc88XA+HtfDCkXh9QQlbzFetWoVnnnkGer1e1okoIYnHrl278NZbb8FiscjePxg6OzvxzTffoLGxUdaR/H4/fvzjH2POnDkYN24c7rrrLqxatQq33HILxo4di9jYWBgMhgEPPKPRiClTpiA9PV2mRej1ehQUFAxol2dXV5diORQVFTXks/NA4YVdzna7XVZv4QyqcPB4PCgoKMBzzz2HI0eOgGEYWf/1+XyYNm0ann76aWRnZw/qex1BCXkgPF+wBtoTtMFgQE5ODqZMmYIpU6b0qMZoNBoYI6Kh1cWCosJT4+UQRETHweVwhB2FSXgeGhqgdXrYbDbZbA9hUOzatQv79++HyWTCqFGjwh4AXq8XLS0tsmvR0dH9Mj5RFIW5c+fi9ddfx7hx40CCYgeMRiPOnTuHl19+edCH+0BQyUtKSlBYWCgLgeZ5HuPHj8fy5ctlAjTcGSJcUlNTMWnSpODL8Pv9+OyzzxQzbV+0t7fLZjWe5zF69Oh+bSobbnieV6zdg2ficCGEwO/3o6OjA4cPH8bzzz+PzZs3w+PxKOpBo9Fg2bJlePbZZ6WjCQZD8NiBcD9hCQiapnHTTTfh3//93zF16lTcfPPNiIqKUrxZo9GA1gyscniWRUrmNNha6xBmTloAPPRGHVjoFGtVCCruqFGjoBO2rIa7Lx4BGkSgQBk9enTYGkggGRkZeO211zB//nxERETIOpTBYEBHRwdee+01aW9H8KwZLo2Njfjss89kM6zYyI8++qjCLT3UmEwmzJgxA8nJybJnIISgrKysR5tIbwTv4oRQXwNpg94gghuXYRg4nU5YLBZcuXIFdXV1ss1LPRHuIAoFEfJdWCwWlJeXY+/evXjllVfw9ttvo6mpCUajUeqzHMdBIyQO3rhxIx599NF+BUL1RvDShaIosCwbVl9UTLnp6elYsGABGIaRKocS7BQanS48+0EQBASR0aPg6W4DxymlWU/QGh1MsWnodn2feTrwAYmQN/KOO+6A2WxGenp6v3bX+YRs1oGf2Z8gq2BMJhM2btyIBx98EGPHjpWpb2KH37lzJ959912cPHmy3+5Bt9uNjz/+GNeuXZPds8/nw+LFi3uc2YeD7OxsTJw4UdHZ7HY7vv7667CXUzzPo6OjQyEgegra6glCiOSCtNvtsFqtaGlpQW1tLUpLS1FaWoqzZ8/i9OnT+O6773Dw4EEUFBTgk08+wZYtW7Bp0ya88cYb2Lt3r8z9FwwnRJUGEs6gcjqdaGhoQHFxMfbs2YM///nP+P3vf4+//e1vUu5X8TnF7xg7diyWLFmCZ599FvPmzRuwptITwctp9EP4aV555ZVXAi/QNI2MjAxwHIfW1lZ0d3cjISEB+fn56GgoR0fzlcDifUIIj1GJadAaomC3NoLnGISThUqrj0De7LthdXI4ceIE+ACfMCXkBHzggQeQkpKCqVOnIjU1VdHheoIIUWrffvut5PqDcJLT0qVLg4uHDUVRyMjIQFpaGlwuFywWi+yeNRoN2traUF1djc7OTphMprB8/oQQfPnll9i3b59MiPFCyO2jjz46bG63YAwGA7RaLcrLy2U2IUIIOjs7odVqkZGR0aew9fl8+OSTT2QxBoQQmEwmzJ49W5aYhxHS4re3t+Pq1auorKxEWVkZiouLJSFQXFws/T558iRKSkpw+vRplJSU4NSpUzhz5gwuXLiAyspKWCwWuN1uOBwOWCwWZGZmKlzbENRyUTMKtg2sWrVKpq2KHpm6ujqcPn0ahYWFKCoqwpEjR3Du3Dm0trZKGoL4Pp7nwfM8UlNTccstt+Cee+7BwoULh0xrCOTrr79WTIgURWHmzJlITk7uVfNWCAgI6+e8vDxkZGQgIyMDN9xwA3Jzc2FrvQrL1YsgPBfWIAe+d28mjs2Gz9UJR0dLeDEQhEAfYcRNt6/DpbpGnDt3TtZIPM9j5cqVUgr3/hgoCSGor6/HoUOHZOpdTk5Or27OcKCFA2ezsrJgNBrR1NQkE0IURcEjnAR26dIl2Gw2GI1GGAwGEEJ6nDWqqqqwefNmUEE2BYZhcP/992PmzJlhP/tQMHr0aDQ3N6Oh4R9JhSlBZW1paUFSUhJSU1N7vaeuri7s2LFD0THdbjf8fj9aWlpQVVWFCxcu4OjRoygsLERhYSFOnDiBkpISlJaWorq6GnV1daivr8e1a9dgsVhgs9ngcrmkuBmfz6eI36BpWqpLjUaDjIwM5OTkyO4DgiA4e/YsKisrZe3i8/mQm5sLj8eDxsZGnDlzBoWFhThw4ACOHj2KM2fOoKamRkqVTwnat4iomY8bNw633347li9fjh/96Ed91tlgOHnypGyZQVEUOI7DzJkzkZqaqmiHQHoUEBACgMxmM3JycpCRkQGj0Yguawsaq0+CZxiEux9DqzdCFxELr6sbjNcZ3vsoIHp0MqYs/ClOnjyFy5cvS43EMAwyMzOxdu1ayVXX2wMGw/M8qqurcezYMdln3nzzzZg+fXpw8X5DCWcmZGdnw2z+3kUbaAkX77W7uxtXrlzByZMnpY5fUVGB0tJSEEKQnJwMp9OJP/7xj2hvb1d0skmTJmHlypUjtnFIRKvVIj4+HqdOnZLFeojCr6amBpmZmUhMTAzZLjU1NTh48KBs4FGCZ6qxsREVFRUoKytDVVUVGhoaYLFY0NnZCZeQNYwL2G1LC0F84o/YHwJ/ekJcpi5evBjJycnBL8PpdOLIkSNobm6WDVytVouzZ8/iu+++w7Fjx1BaWoq6ujpYrVY4nU6wQgoB8V4g9Dkx4GrKlCm47777sGLFCsyYMQNmszmsTG6DQbzHwOcghGDatGkYN25cr5p36FeEyjcYDNIDxKekQaPRgIQZC0EID31EDAjHwGW3hCcc8L0HI33KbfAz3+cpEHG5XDCbzXj22WcHrIqxLIva2lqFoa0/Hoy+oCgKkZGRmDt3Ln71q19hxowZirUuJUhxp9OJ5uZmVFRU4PDhw9i7dy+Ki4vh9/tRWFiI2tpaRQPqdDosWrSoR9V4JMjMzMTixYsVa1taiI343e9+16vr88qVKz2uf8U6YYQoVy4gCVCwABgsLMti5syZIe03XV1duHr1qkKro2laShXg8XjACNvBQwkFn88Hs9mMhx9+GG+++SZ+9atfYdGiRRg7dmy/YlEGg6ihBuIXcnH0ZVPpVUAEMyoxFRot6VeslFanA62hwbPhGScBgOf8yJt1O4xGI3JycpCeno4xY8bgJz/5CX77298OamBwHIempiaZN4Dn+R5nkcFC0zSSk5Px4osv4sknn4RROBkpuLFEaJqGyWRCUlISeJ6XouoCEbWdqVOnKgTHSEFRFFauXImsrCyFe5OmaXg8HrzwwgshoyxbW1v7teGppzojQoSvVthPkpiYiOTkZOmU8rS0NIwdOxbJycnS2SniIDabzfjZz36GRx99tEe1nmVZVFZW9uhpEREFVeC9iX/r9XpkZWVh1apV+P3vf49Nmzbh3nvvlQ6lCvWZw0VGRkaPrs5whBNFgmu+D3a9/XM0VpeEZYMghEdMfCoMkTFoqy8Py01KeB6xKeOx9lcfypYAYmcYLO3t7XjppZdkVnSGYfDGG28gKysruPiQQQhBTU0NPv30U1RVVcEtHPkX2Fl4IRnJI488gsmTJ2PTpk0oLS2VyvBCHsENGzb0eiLzSFFeXo7XX39dsV8BguX8zjvvxMaNG2UdkeM4bN68GYcPHw7ZnkTYU6IRwpojIyOlWJeUlBTEx8cjNTUViYmJiIyMlM6G0Gg0igHPCTtVxRlfI6S0680tbLfb8etf/1qhlgciag0G4YzOuLg4ZGVlYcKECcjKykJ8fHy/hOBw0tzcjKefflrScHieR0REBH7+85/j5ptvVrRdICFtEKFgWB51Fw6GGTBFoDdGgdbq4O5uD8tFyjEe3Pp/nkVK+j9CS0Xj0lDQ3t6OvXv3Sp2WEw6KvfPOO3vtNIOFEg4Fnj59OuLj48HzvLQZSJTusbGxmDdvHm699VYpMWp9fT3a29tBhHDqRYsWYfHixSEH10iSlJQEvV6PiooKMAwjayNxcC9cuFAmIGhh2/zRo0cVa2JO2KA0evRopKenY/LkyZgzZw4WL16M5cuX4/bbb8fs2bMxefJkjBs3TtqObjQaodfrZUJC/NFqtdDr9YiKikJsbKwUO9MbTU1N2LlzZ4/CgRdc2GPGjMGNN96I2267DStWrMCyZcswa9YsjBs3DtHR0T2+93phMplgsVjQ2NgIhmEQHR2N+fPnY+7cuX2mrOu3BuG0d2Dbi0tASO+VDEGDMI1Kgs5oQmfLlT41CJ5jEZ86Aat+uQV6Q+83PlA6Ojrw4osvSslKfD4f1qxZg5UrV/bpnhsqCCHSORNNTU2wWCyIiIhAdnY2pk2bJtlDCCG4ePEiCgsLYbVaMWnSJNxxxx393u47nLjdbuzZswd79+6F1+uVBobdbscvfvELLFmyJPgtcLvd2LJlCwoLC8FxHAwGAxITEzF+/HjJVTx+/HjEx8f3OZiHA6vViv/8z/9EXV2dTBB7vV6YzWbMnTsX06dPR1ZWVp8D7IeCxWLBkSNH0NHRgQkTJmDGjBlhGbj7LSAAYO+Wl3C5pAAabe8DihAeEVHx0BlN6LbWhzyTU4T1e7Dkkdcwee7y4JeGDIZhsG/fPnz00UdwOp246aabsGHDhut2bB7P83C5XNDpdCHDjB0OB7q6uqS19A8Nh8OBoqIifPXVV6irq4NOp8OSJUuwfv36kOcu2Gw2nD9/Hna7HaNHj0Z8fDzMZvOAI1qHEo7jcPr0abz77rtoa2sDEY64mzdvHubPn4/c3NwRm0yGEo7j4PP5+mUcHZCA6GpvwZ9/MR/GqN6TdxLCwxg1GjqDCY72pl6XGBzrx5gJs7DiZ68jMqZvyTYY3G43mpqa4PF4kJKSgoSEhOveKf+n4/P5YLVace3aNZhMJknV7g0ScCZLuB12pPD7/aiqqkJpaal06nlqauqAvWf/UxmQgACAo5+/ixNf/BcMptBRfITwMJpGQaePhMPW0quAAK3Fio3/hYwbZoxYZyFirguVIUPsTv8/1KtoF6GCXJj/m+hlxPbO7KXrYYpLlTpET1AUDQKAZXrbyUjAs37MWvIgUjNvGNFGGMnv+t8CNURxCj8EKMFzpukhfd//FgYsIHQGI25/8CVotZpet3Bzfj8Yxt+j9vD9DA7kzbkLE+eugN74wzlyTUVFZRACgqIoZEycg5uWPAqtTifsz1DCsT5w/h6yVBECjYZGzsw7kX/XzzAqPiW4hIqKynVmwAICAPTGSEyadw9umPtjaLTakEKiJwjhkTNzCfLvegyxSYNPiqGiojL0DNhIGUh3ZxvOH/4EZcd2wevs6tX9ybF+aLR6TFv4E0y7bbWqOaio/IAZEgEBAB6nHS11ZThf+Bkayo/C73VCp/+HTYEQHgQEY3JmYfadD2JM1lQYTUO3QUpFRWXoGTIBAXy/j4Lxe+GwNaO+8gzqK8/C5/k+c/Ho5Axk3jgXY7OnwWiKDi8vhIqKynVlSAWEiorK/1+o07iKikpIVAGhoqISElVAqKiohEQVECoqKiFRBYSKikpIVAGhoqISElVAqKiohEQVECoqKiH5f40aFs3Rotk3AAAAAElFTkSuQmCC;" vertex="1" parent="1">
          <mxGeometry x="540.78" y="457.45" width="69.22" height="22.55" as="geometry" />
        </mxCell>
        <mxCell id="J_RyUydGFugAgPV09VgC-88" value="Menangani Nilai yang Hilang (Missing Values)&lt;div&gt;&lt;div&gt;Memperbaiki Tipe Data&lt;/div&gt;&lt;div&gt;Menghapus Duplikat&lt;/div&gt;&lt;div&gt;Memfilter Data yang Tidak Relevan&lt;/div&gt;&lt;div&gt;&lt;div&gt;Mengoreksi Kesalahan Ejaan atau Inkonsistensi (lebih lanjut ke normalisasi)&lt;/div&gt;&lt;/div&gt;&lt;/div&gt;&lt;div&gt;Standardisasi Format&lt;/div&gt;&lt;div&gt;Mengganti Nilai untuk Konsistensi Kategori&lt;/div&gt;&lt;div&gt;Menggunakan Regex untuk Ekstraksi atau Penggantian Pola&lt;/div&gt;&lt;div&gt;&lt;br&gt;&lt;/div&gt;" style="rounded=0;whiteSpace=wrap;html=1;align=left;" vertex="1" parent="1">
          <mxGeometry x="750" y="432.5" width="260" height="170" as="geometry" />
        </mxCell>
        <mxCell id="J_RyUydGFugAgPV09VgC-91" value="NLP" style="text;html=1;align=center;verticalAlign=middle;whiteSpace=wrap;rounded=0;" vertex="1" parent="1">
          <mxGeometry x="550" y="572.5" width="110" height="30" as="geometry" />
        </mxCell>
        <mxCell id="J_RyUydGFugAgPV09VgC-92" value="NLP + Information Extractor" style="text;html=1;align=center;verticalAlign=middle;whiteSpace=wrap;rounded=0;" vertex="1" parent="1">
          <mxGeometry x="545.39" y="642.5" width="124.61" height="30" as="geometry" />
        </mxCell>
        <mxCell id="J_RyUydGFugAgPV09VgC-99" value="Field" style="swimlane;fontStyle=0;childLayout=stackLayout;horizontal=1;startSize=30;horizontalStack=0;resizeParent=1;resizeParentMax=0;resizeLast=0;collapsible=1;marginBottom=0;whiteSpace=wrap;html=1;" vertex="1" parent="1">
          <mxGeometry x="480" y="730" width="140" height="150" as="geometry">
            <mxRectangle x="-25" y="120" width="70" height="30" as="alternateBounds" />
          </mxGeometry>
        </mxCell>
        <mxCell id="J_RyUydGFugAgPV09VgC-100" value="message id" style="text;strokeColor=none;fillColor=none;align=left;verticalAlign=middle;spacingLeft=4;spacingRight=4;overflow=hidden;points=[[0,0.5],[1,0.5]];portConstraint=eastwest;rotatable=0;whiteSpace=wrap;html=1;" vertex="1" parent="J_RyUydGFugAgPV09VgC-99">
          <mxGeometry y="30" width="140" height="30" as="geometry" />
        </mxCell>
        <mxCell id="J_RyUydGFugAgPV09VgC-102" value="chat id" style="text;strokeColor=none;fillColor=none;align=left;verticalAlign=middle;spacingLeft=4;spacingRight=4;overflow=hidden;points=[[0,0.5],[1,0.5]];portConstraint=eastwest;rotatable=0;whiteSpace=wrap;html=1;" vertex="1" parent="J_RyUydGFugAgPV09VgC-99">
          <mxGeometry y="60" width="140" height="30" as="geometry" />
        </mxCell>
        <mxCell id="J_RyUydGFugAgPV09VgC-101" value="comand" style="text;strokeColor=none;fillColor=none;align=left;verticalAlign=middle;spacingLeft=4;spacingRight=4;overflow=hidden;points=[[0,0.5],[1,0.5]];portConstraint=eastwest;rotatable=0;whiteSpace=wrap;html=1;" vertex="1" parent="J_RyUydGFugAgPV09VgC-99">
          <mxGeometry y="90" width="140" height="30" as="geometry" />
        </mxCell>
        <mxCell id="J_RyUydGFugAgPV09VgC-103" value="carrier" style="text;strokeColor=none;fillColor=none;align=left;verticalAlign=middle;spacingLeft=4;spacingRight=4;overflow=hidden;points=[[0,0.5],[1,0.5]];portConstraint=eastwest;rotatable=0;whiteSpace=wrap;html=1;" vertex="1" parent="J_RyUydGFugAgPV09VgC-99">
          <mxGeometry y="120" width="140" height="30" as="geometry" />
        </mxCell>
      </root>
    </mxGraphModel>
  </diagram>
</mxfile>
